<?xml version="1.0" encoding="UTF-8" standalone="no"?>
<svg width="339px" height="173px" viewBox="0 0 339 173" version="1.1" xmlns="http://www.w3.org/2000/svg" xmlns:xlink="http://www.w3.org/1999/xlink" xmlns:sketch="http://www.bohemiancoding.com/sketch/ns">
    <!-- Generator: Sketch 3.3.2 (12043) - http://www.bohemiancoding.com/sketch -->
    <title>Artboard 1</title>
    <desc>Created with Sketch.</desc>
    <defs>
        <path id="path-1" d="M-74.94,46 L797,46 L797,717.94 L-74.94,717.94"></path>
    </defs>
    <g id="Page-1" stroke="none" stroke-width="1" fill="none" fill-rule="evenodd" sketch:type="MSPage">
        <g id="EN_Logo" sketch:type="MSLayerGroup" transform="translate(-55.000000, -103.000000)">
            <path d="M36.5,36.5 L444.5,36.5 L444.5,636.5 L36.5,636.5 L36.5,36.5 Z" id="Fill-1" fill="#343433" sketch:type="MSShapeGroup"></path>
            <path d="M259.877,157.882 C259.872,144.117 248.712,132.958 234.945,132.958 C221.179,132.958 210.02,144.117 210.015,157.882 L219.988,157.882 C219.992,149.624 226.687,142.932 234.945,142.932 C243.204,142.932 249.898,149.624 249.903,157.882 L259.877,157.882" id="Fill-2" fill="#359FCD" sketch:type="MSShapeGroup"></path>
            <path d="M274.836,157.89 C274.835,135.859 256.977,118 234.945,118 C212.915,118 195.055,135.859 195.055,157.891 C195.055,179.921 212.915,197.78 234.945,197.78 L234.945,187.808 C218.423,187.808 205.028,174.414 205.028,157.891 C205.028,141.367 218.423,127.973 234.945,127.973 C251.468,127.973 264.863,141.367 264.863,157.89 L274.836,157.89" id="Fill-3" fill="#FFFFFF" sketch:type="MSShapeGroup"></path>
            <path d="M353.909,234.251 L353.909,213.525 L364.047,213.525 L364.047,209.02 L353.909,209.02 L353.909,200.189 L348.954,202.057 L348.954,235.678 C348.954,243.412 353.909,245.064 357.664,245.064 C360.143,245.064 362.546,244.614 364.348,243.788 L364.122,239.207 C362.62,240.033 360.743,240.559 359.016,240.559 C355.937,240.559 353.909,239.508 353.909,234.251" id="Fill-4" fill="#359FCD" sketch:type="MSShapeGroup"></path>
            <path d="M275.759,245.064 L280.716,245.064 L280.716,222.762 C280.716,214.051 274.571,208.893 265.636,208.893 C255.924,208.893 250.602,215.093 250.602,222.586 L250.602,245.064 L255.559,245.064 L255.559,224.577 C255.559,213.817 264.722,213.6 265.773,213.6 C273.133,213.6 275.759,217.559 275.759,224.383 L275.759,245.064" id="Fill-5" fill="#359FCD" sketch:type="MSShapeGroup"></path>
            <path d="M344.972,214.81 C342.689,210.17 338.05,208.421 333.106,208.421 C326.413,208.421 319.947,211.768 319.947,219.145 C319.947,225.914 326.641,227.892 329.075,228.5 L333.943,229.642 C337.67,230.554 340.713,231.771 340.713,235.346 C340.713,239.453 336.453,241.278 332.347,241.278 C328.162,241.278 325.044,239.148 322.99,235.955 L318.655,238.921 C322.002,243.94 326.946,245.842 332.347,245.842 C339.268,245.842 346.189,242.647 346.189,234.89 C346.189,229.869 342.462,226.295 337.519,225.153 L332.422,223.937 C327.782,222.872 325.425,221.655 325.425,218.309 C325.425,214.506 329.304,212.984 332.803,212.984 C336.453,212.984 338.963,214.886 340.484,217.775 L344.972,214.81" id="Fill-6" fill="#359FCD" sketch:type="MSShapeGroup"></path>
            <path d="M288.052,223.556 C288.052,221.725 290.875,212.113 300.868,212.113 C307.658,212.113 313.074,217.3 313.074,223.556 L288.052,223.556 M288.052,227.676 L317.652,227.676 L317.652,224.472 C317.652,216.309 311.931,207.993 301.098,207.993 C290.798,207.993 283.475,215.927 283.475,226.455 C283.475,237.347 290.549,245.04 301.276,245.064 L301.276,240.936 C290.711,240.854 288.052,231.474 288.052,227.676" id="Fill-7" fill="#359FCD" sketch:type="MSShapeGroup"></path>
            <path d="M169.975,214.52 C166.474,210.638 161.375,208.963 156.731,208.963 C145.695,208.963 136.866,216.65 136.866,228.144 C136.866,239.637 145.695,247.324 156.731,247.324 C159.928,247.324 166.169,245.954 169.899,242.225 L163.81,235.679 C162.136,237.887 159.547,239.104 156.731,239.104 C150.034,239.104 146,233.852 146,228.144 C146,222.436 150.034,217.184 156.731,217.184 C159.167,217.184 161.527,218.63 163.658,220.837 L169.975,214.52" id="Fill-8" fill="#FFFFFF" sketch:type="MSShapeGroup"></path>
            <path d="M181.539,200.107 L172.477,201.975 L172.477,245.064 L181.539,245.064 L181.539,225.279 C181.539,220.446 183.88,216.066 189.846,216.066 C196.189,216.066 196.491,222.712 196.491,226.714 L196.491,245.064 L205.554,245.064 L205.554,222.184 C205.554,214.782 202.08,207.911 192.338,207.911 C186.75,207.911 183.125,210.856 181.69,213.877 L181.539,213.877 L181.539,200.107" id="Fill-9" fill="#FFFFFF" sketch:type="MSShapeGroup"></path>
            <path d="M238.876,227.967 C238.876,233.632 234.874,238.842 228.229,238.842 C221.583,238.842 217.581,233.632 217.581,227.967 C217.581,222.304 221.583,217.093 228.229,217.093 C234.874,217.093 238.876,222.304 238.876,227.967 M247.938,227.967 C247.938,216.564 239.179,208.938 228.229,208.938 C217.279,208.938 208.519,216.564 208.519,227.967 C208.519,239.37 217.279,246.998 228.229,246.998 C239.179,246.998 247.938,239.37 247.938,227.967" id="Fill-10" fill="#FFFFFF" sketch:type="MSShapeGroup"></path>
            <path d="M124.869,224.526 L106.102,224.526 C106.789,219.263 110.145,215.829 115.562,215.829 C121.284,215.829 124.792,219.187 124.869,224.526 M134.023,231.393 L134.023,228.875 C134.023,216.135 127.081,208.964 116.858,208.964 C105.797,208.964 96.947,216.669 96.947,228.188 C96.947,239.346 105.271,246.858 115.843,247.324 L115.843,240.073 C110.781,240.027 106.708,236.771 106.102,231.393 L134.023,231.393" id="Fill-11" fill="#FFFFFF" sketch:type="MSShapeGroup"></path>
            <path d="M79.231,237.707 L81.583,237.707 L81.583,240.288 L87.922,240.288 C88.517,240.288 88.913,240.188 89.114,239.99 C89.309,239.791 89.409,239.395 89.409,238.802 C89.409,238.602 89.401,238.412 89.383,238.231 C89.368,238.051 89.344,237.876 89.309,237.707 L92.034,237.707 C92.083,238.01 92.118,238.34 92.135,238.702 C92.15,239.064 92.159,239.421 92.159,239.766 C92.159,240.313 92.119,240.827 92.045,241.315 C91.973,241.802 91.827,242.23 91.613,242.603 C91.397,242.975 91.094,243.268 90.698,243.483 C90.301,243.695 89.779,243.804 89.138,243.804 L81.583,243.804 L81.583,245.935 L79.231,245.935 L79.231,243.804 L76.302,243.804 L75.391,240.288 L79.231,240.288 L79.231,237.707" id="Fill-12" fill="#FFFFFF" sketch:type="MSShapeGroup"></path>
            <path d="M75.261,232.758 L81.012,232.758 L81.012,232.685 C80.268,232.236 79.73,231.669 79.39,230.975 C79.052,230.284 78.883,229.603 78.883,228.944 C78.883,228.004 79.01,227.232 79.267,226.625 C79.522,226.026 79.877,225.55 80.332,225.204 C80.785,224.857 81.339,224.614 81.991,224.474 C82.644,224.334 83.366,224.263 84.158,224.263 L92.034,224.263 L92.034,227.782 L84.802,227.782 C83.745,227.782 82.955,227.945 82.437,228.275 C81.917,228.605 81.656,229.189 81.656,230.031 C81.656,230.991 81.942,231.687 82.511,232.113 C83.082,232.543 84.019,232.758 85.322,232.758 L92.034,232.758 L92.034,236.276 L76.171,236.276 L75.261,232.758" id="Fill-13" fill="#FFFFFF" sketch:type="MSShapeGroup"></path>
            <path d="M82.228,215.086 C81.763,215.507 81.533,216.147 81.533,217.008 C81.533,217.569 81.626,218.032 81.819,218.406 C82.007,218.774 82.242,219.073 82.523,219.299 C82.807,219.52 83.1,219.678 83.416,219.768 C83.729,219.858 84.01,219.912 84.258,219.929 L84.258,214.208 C83.366,214.371 82.689,214.666 82.228,215.086 L82.228,215.086 Z M88.963,219.063 C89.475,218.535 89.73,217.774 89.73,216.783 C89.73,216.074 89.554,215.463 89.198,214.952 C88.844,214.439 88.468,214.125 88.071,214.01 L88.071,210.912 C89.607,211.406 90.706,212.169 91.364,213.191 C92.025,214.216 92.355,215.453 92.355,216.904 C92.355,217.914 92.197,218.822 91.873,219.632 C91.551,220.439 91.094,221.125 90.499,221.688 C89.903,222.247 89.194,222.686 88.369,222.986 C87.542,223.293 86.635,223.447 85.646,223.447 C84.686,223.447 83.794,223.287 82.97,222.975 C82.145,222.66 81.43,222.217 80.827,221.638 C80.223,221.06 79.749,220.369 79.402,219.567 C79.055,218.768 78.883,217.88 78.883,216.904 C78.883,215.818 79.091,214.867 79.515,214.058 C79.936,213.25 80.5,212.585 81.211,212.066 C81.919,211.547 82.728,211.169 83.638,210.939 C84.545,210.708 85.497,210.626 86.486,210.691 L86.486,219.929 C87.627,219.879 88.449,219.589 88.963,219.063 L88.963,219.063 Z" id="Fill-14" fill="#FFFFFF" sketch:type="MSShapeGroup"></path>
            <g id="Group-56">
                <mask id="mask-2" sketch:name="Clip 55" fill="white">
                    <use xlink:href="#path-1"></use>
                </mask>
                <g id="Clip-55"></g>
                <path d="M27,636 L0,636 M36,645 L36,672 M27,36 L0,36 M36,27 L36,0 M845,36 L872,36 M836,27 L836,0 M845,636 L872,636 M836,645 L836,672" id="Stroke-54" stroke="#0A0B09" stroke-width="0.5" sketch:type="MSShapeGroup" mask="url(#mask-2)"></path>
            </g>
        </g>
        <g id="Artboard-1" sketch:type="MSArtboardGroup"></g>
    </g>
</svg>