<?xml version="1.0" encoding="UTF-8" standalone="no"?>
<svg width="290px" height="351px" viewBox="0 0 290 351" version="1.1" xmlns="http://www.w3.org/2000/svg" xmlns:xlink="http://www.w3.org/1999/xlink" xmlns:sketch="http://www.bohemiancoding.com/sketch/ns">
    <!-- Generator: Sketch 3.3.2 (12043) - http://www.bohemiancoding.com/sketch -->
    <title>Artboard-1</title>
    <desc>Created with Sketch.</desc>
    <defs></defs>
    <g id="Page-1" stroke="none" stroke-width="1" fill="none" fill-rule="evenodd" sketch:type="MSPage">
        <g id="echonest-logo" sketch:type="MSLayerGroup">
            <g id="Page-1" sketch:type="MSShapeGroup">
                <g id="Artboard-1">
                    <g id="EN_Logo">
                        <path d="M233.024854,141.879912 C233.007147,93.2433649 193.485613,53.8147248 144.731764,53.8147248 C95.9814561,53.8147248 56.4634635,93.2433649 56.4457567,141.879912 L91.763701,141.879912 C91.7778664,112.701517 115.487245,89.0563465 144.731764,89.0563465 C173.979824,89.0563465 197.685662,112.701517 197.703369,141.879912 L233.024854,141.879912" id="Fill-2" fill="#359FCD"></path>
                        <path d="M286,141.908179 C285.996459,64.0649699 222.754922,0.962892381 144.731764,0.962892381 C66.7156893,0.962892381 3.46706952,64.0649699 3.46706952,141.911712 C3.46706952,219.751388 66.7156893,282.853465 144.731764,282.853465 L144.731764,247.61891 C86.2214787,247.61891 38.7850138,200.293236 38.7850138,141.911712 C38.7850138,83.5266555 86.2214787,36.2009807 144.731764,36.2009807 C203.245591,36.2009807 250.682056,83.5266555 250.682056,141.908179 L286,141.908179" id="Fill-3" fill="#FFFFFF"></path>
                        <path d="M278.909,337.251 L278.909,316.525 L289.047,316.525 L289.047,312.02 L278.909,312.02 L278.909,303.189 L273.954,305.057 L273.954,338.678 C273.954,346.412 278.909,348.064 282.664,348.064 C285.143,348.064 287.546,347.614 289.348,346.788 L289.122,342.207 C287.62,343.033 285.743,343.559 284.016,343.559 C280.937,343.559 278.909,342.508 278.909,337.251" id="Fill-4" fill="#359FCD"></path>
                        <path d="M200.759,348.064 L205.716,348.064 L205.716,325.762 C205.716,317.051 199.571,311.893 190.636,311.893 C180.924,311.893 175.602,318.093 175.602,325.586 L175.602,348.064 L180.559,348.064 L180.559,327.577 C180.559,316.817 189.722,316.6 190.773,316.6 C198.133,316.6 200.759,320.559 200.759,327.383 L200.759,348.064" id="Fill-5" fill="#359FCD"></path>
                        <path d="M269.972,317.81 C267.689,313.17 263.05,311.421 258.106,311.421 C251.413,311.421 244.947,314.768 244.947,322.145 C244.947,328.914 251.641,330.892 254.075,331.5 L258.943,332.642 C262.67,333.554 265.713,334.771 265.713,338.346 C265.713,342.453 261.453,344.278 257.347,344.278 C253.162,344.278 250.044,342.148 247.99,338.955 L243.655,341.921 C247.002,346.94 251.946,348.842 257.347,348.842 C264.268,348.842 271.189,345.647 271.189,337.89 C271.189,332.869 267.462,329.295 262.519,328.153 L257.422,326.937 C252.782,325.872 250.425,324.655 250.425,321.309 C250.425,317.506 254.304,315.984 257.803,315.984 C261.453,315.984 263.963,317.886 265.484,320.775 L269.972,317.81" id="Fill-6" fill="#359FCD"></path>
                        <path d="M213.052,326.556 C213.052,324.725 215.875,315.113 225.868,315.113 C232.658,315.113 238.074,320.3 238.074,326.556 L213.052,326.556 M213.052,330.676 L242.652,330.676 L242.652,327.472 C242.652,319.309 236.931,310.993 226.098,310.993 C215.798,310.993 208.475,318.927 208.475,329.455 C208.475,340.347 215.549,348.04 226.276,348.064 L226.276,343.936 C215.711,343.854 213.052,334.474 213.052,330.676" id="Fill-7" fill="#359FCD"></path>
                        <path d="M94.975,317.52 C91.474,313.638 86.375,311.963 81.731,311.963 C70.695,311.963 61.866,319.65 61.866,331.144 C61.866,342.637 70.695,350.324 81.731,350.324 C84.928,350.324 91.169,348.954 94.899,345.225 L88.81,338.679 C87.136,340.887 84.547,342.104 81.731,342.104 C75.034,342.104 71,336.852 71,331.144 C71,325.436 75.034,320.184 81.731,320.184 C84.167,320.184 86.527,321.63 88.658,323.837 L94.975,317.52" id="Fill-8" fill="#FFFFFF"></path>
                        <path d="M106.539,303.107 L97.477,304.975 L97.477,348.064 L106.539,348.064 L106.539,328.279 C106.539,323.446 108.88,319.066 114.846,319.066 C121.189,319.066 121.491,325.712 121.491,329.714 L121.491,348.064 L130.554,348.064 L130.554,325.184 C130.554,317.782 127.08,310.911 117.338,310.911 C111.75,310.911 108.125,313.856 106.69,316.877 L106.539,316.877 L106.539,303.107" id="Fill-9" fill="#FFFFFF"></path>
                        <path d="M163.876,330.967 C163.876,336.632 159.874,341.842 153.229,341.842 C146.583,341.842 142.581,336.632 142.581,330.967 C142.581,325.304 146.583,320.093 153.229,320.093 C159.874,320.093 163.876,325.304 163.876,330.967 M172.938,330.967 C172.938,319.564 164.179,311.938 153.229,311.938 C142.279,311.938 133.519,319.564 133.519,330.967 C133.519,342.37 142.279,349.998 153.229,349.998 C164.179,349.998 172.938,342.37 172.938,330.967" id="Fill-10" fill="#FFFFFF"></path>
                        <path d="M49.869,327.526 L31.102,327.526 C31.789,322.263 35.145,318.829 40.562,318.829 C46.284,318.829 49.792,322.187 49.869,327.526 M59.023,334.393 L59.023,331.875 C59.023,319.135 52.081,311.964 41.858,311.964 C30.797,311.964 21.947,319.669 21.947,331.188 C21.947,342.346 30.271,349.858 40.843,350.324 L40.843,343.073 C35.781,343.027 31.708,339.771 31.102,334.393 L59.023,334.393" id="Fill-11" fill="#FFFFFF"></path>
                        <path d="M4.231,340.707 L6.583,340.707 L6.583,343.288 L12.922,343.288 C13.517,343.288 13.913,343.188 14.114,342.99 C14.309,342.791 14.409,342.395 14.409,341.802 C14.409,341.602 14.401,341.412 14.383,341.231 C14.368,341.051 14.344,340.876 14.309,340.707 L17.034,340.707 C17.083,341.01 17.118,341.34 17.135,341.702 C17.15,342.064 17.159,342.421 17.159,342.766 C17.159,343.313 17.119,343.827 17.045,344.315 C16.973,344.802 16.827,345.23 16.613,345.603 C16.397,345.975 16.094,346.268 15.698,346.483 C15.301,346.695 14.779,346.804 14.138,346.804 L6.583,346.804 L6.583,348.935 L4.231,348.935 L4.231,346.804 L1.302,346.804 L0.391,343.288 L4.231,343.288 L4.231,340.707" id="Fill-12" fill="#FFFFFF"></path>
                        <path d="M0.261,335.758 L6.012,335.758 L6.012,335.685 C5.268,335.236 4.73,334.669 4.39,333.975 C4.052,333.284 3.883,332.603 3.883,331.944 C3.883,331.004 4.01,330.232 4.267,329.625 C4.522,329.026 4.877,328.55 5.332,328.204 C5.785,327.857 6.339,327.614 6.991,327.474 C7.644,327.334 8.366,327.263 9.158,327.263 L17.034,327.263 L17.034,330.782 L9.802,330.782 C8.745,330.782 7.955,330.945 7.437,331.275 C6.917,331.605 6.656,332.189 6.656,333.031 C6.656,333.991 6.942,334.687 7.511,335.113 C8.082,335.543 9.019,335.758 10.322,335.758 L17.034,335.758 L17.034,339.276 L1.171,339.276 L0.261,335.758" id="Fill-13" fill="#FFFFFF"></path>
                        <path d="M7.228,318.086 C6.763,318.507 6.533,319.147 6.533,320.008 C6.533,320.569 6.626,321.032 6.819,321.406 C7.007,321.774 7.242,322.073 7.523,322.299 C7.807,322.52 8.1,322.678 8.416,322.768 C8.729,322.858 9.01,322.912 9.258,322.929 L9.258,317.208 C8.366,317.371 7.689,317.666 7.228,318.086 L7.228,318.086 L7.228,318.086 Z M13.963,322.063 C14.475,321.535 14.73,320.774 14.73,319.783 C14.73,319.074 14.554,318.463 14.198,317.952 C13.844,317.439 13.468,317.125 13.071,317.01 L13.071,313.912 C14.607,314.406 15.706,315.169 16.364,316.191 C17.025,317.216 17.355,318.453 17.355,319.904 C17.355,320.914 17.197,321.822 16.873,322.632 C16.551,323.439 16.094,324.125 15.499,324.688 C14.903,325.247 14.194,325.686 13.369,325.986 C12.542,326.293 11.635,326.447 10.646,326.447 C9.686,326.447 8.794,326.287 7.97,325.975 C7.145,325.66 6.43,325.217 5.827,324.638 C5.223,324.06 4.749,323.369 4.402,322.567 C4.055,321.768 3.883,320.88 3.883,319.904 C3.883,318.818 4.091,317.867 4.515,317.058 C4.936,316.25 5.5,315.585 6.211,315.066 C6.919,314.547 7.728,314.169 8.638,313.939 C9.545,313.708 10.497,313.626 11.486,313.691 L11.486,322.929 C12.627,322.879 13.449,322.589 13.963,322.063 L13.963,322.063 L13.963,322.063 Z" id="Fill-14" fill="#FFFFFF"></path>
                    </g>
                </g>
            </g>
        </g>
    </g>
</svg>