<?xml version="1.0" encoding="utf-8"?>
<!-- Generated by IcoMoon.io -->
<!DOCTYPE svg PUBLIC "-//W3C//DTD SVG 1.1//EN" "http://www.w3.org/Graphics/SVG/1.1/DTD/svg11.dtd">
<svg version="1.1" xmlns="http://www.w3.org/2000/svg" xmlns:xlink="http://www.w3.org/1999/xlink" width="512" height="512" viewBox="0 0 512 512"><g id="icomoon-ignore">
</g>
<path fill="#2EBD59" d="M192 256c0-35.346 28.654-64 64-64s64 28.654 64 64c0 35.346-28.654 64-64 64s-64-28.654-64-64zM332.174 115.263c49.926 27.079 83.826 79.949 83.826 140.737s-33.9 113.658-83.826 140.737c22.033-35.063 35.826-85.135 35.826-140.737s-13.793-105.674-35.826-140.737zM144 256c0 55.602 13.792 105.674 35.826 140.737-49.926-27.080-83.826-79.949-83.826-140.737s33.9-113.657 83.826-140.737c-22.034 35.063-35.826 85.135-35.826 140.737zM48 256c0 85.95 27.202 163.092 70.326 215.861-71.151-45.474-118.326-125.157-118.326-215.861s47.175-170.387 118.326-215.861c-43.124 52.769-70.326 129.911-70.326 215.861zM393.676 40.14c71.149 45.473 118.324 125.156 118.324 215.86s-47.175 170.387-118.324 215.86c43.122-52.768 70.324-129.91 70.324-215.86s-27.202-163.092-70.324-215.86z"></path>
</svg>
