<svg version="1.1" xmlns="http://www.w3.org/2000/svg" viewBox="0 0 194 186" preserveAspectRatio="xMidYMid meet" xmlns:xlink="http://www.w3.org/1999/xlink">
  <g fill="#FFFFFF" stroke="none">
    <path d="M178.1616,0.0967 C80.0336,0.0967 0.4836,79.6447 0.4836,177.7727 C0.4836,275.9087 80.0336,355.4537 178.1616,355.4537 C276.2916,355.4537 355.8396,275.9087 355.8396,177.7727 C355.8396,79.6447 276.2916,0.0967 178.1616,0.0967 Z M255.9727,241.1416 C209.1417,212.5226 151.0847,205.8646 83.4027,221.3376 C77.4297,222.6966 73.7097,228.6386 75.0737,234.5966 C76.4327,240.5556 82.3717,244.2896 88.3327,242.9246 C150.1807,228.7966 202.6967,234.5556 244.4197,260.0576 C249.6377,263.2466 256.4547,261.6066 259.6467,256.3716 C262.8387,251.1516 261.1957,244.3306 255.9727,241.1416 Z M276.8301,188.9448 C221.9881,155.2428 141.7661,145.7588 77.2351,165.3408 C69.9211,167.5678 65.7891,175.2908 67.9961,182.6168 C70.2221,189.9288 77.9581,194.0598 85.2861,191.8448 C141.7751,174.6988 214.5861,183.2008 262.3341,212.5518 C268.8461,216.5538 277.3721,214.5088 281.3891,207.9898 C285.3921,201.4858 283.3441,192.9548 276.8301,188.9448 Z M300.2285,129.0293 C234.2935,89.8903 129.9605,86.2103 67.1975,105.2613 C58.4105,107.9303 53.4595,117.2093 56.1205,125.9933 C58.7815,134.7733 68.0655,139.7293 76.8455,137.0663 C131.5195,120.4713 225.9915,123.5993 283.2635,157.6123 C291.1425,162.3003 301.3495,159.6973 306.0345,151.8003 C310.7145,143.9163 308.1245,133.7163 300.2285,129.0293 Z"></path>
  </g>
</svg>